<svg width="1271" height="209" viewBox="0 0 1271 209" fill="none" xmlns="http://www.w3.org/2000/svg">
<path d="M505.188 39.5762C511.822 39.5762 517.973 40.2397 523.642 41.5664C529.431 42.8931 534.557 45.0639 539.02 48.0791C543.603 50.9737 547.522 54.9541 550.778 60.0195C554.035 64.9644 556.568 71.1157 558.377 78.4727C560.186 85.709 561.091 94.3326 561.091 104.343C561.091 114.474 560.186 123.278 558.377 130.756C556.688 138.113 554.155 144.324 550.778 149.39C547.522 154.334 543.603 158.315 539.02 161.33C534.557 164.345 529.431 166.516 523.642 167.843C517.973 169.169 511.822 169.833 505.188 169.833C498.676 169.833 492.585 169.169 486.917 167.843C481.369 166.516 476.243 164.345 471.539 161.33C466.956 158.194 463.037 154.154 459.78 149.209C456.524 144.143 453.991 137.992 452.182 130.756C450.493 123.399 449.649 114.715 449.649 104.704C449.649 94.6938 450.493 86.0704 452.182 78.834C453.87 71.4769 456.343 65.3258 459.6 60.3809C462.856 55.3155 466.775 51.2749 471.358 48.2598C475.941 45.124 481.007 42.8931 486.555 41.5664C492.223 40.2397 498.435 39.5762 505.188 39.5762ZM836.153 39.5762C839.892 39.5762 843.329 39.6973 846.465 39.9385C849.601 40.0591 852.616 40.3603 855.511 40.8428C858.405 41.2046 861.179 41.6871 863.832 42.29C865.387 42.6281 866.943 43.0041 868.498 43.418C870.56 43.9667 871.758 46.082 871.251 48.1543L869.149 56.7549C868.614 58.9436 866.387 60.2558 864.188 59.7607C862.009 59.2699 859.9 58.8742 857.862 58.5723C854.606 57.9692 851.349 57.5469 848.093 57.3057C844.836 57.0645 841.459 56.9434 837.962 56.9434C831.329 56.9434 825.54 57.7881 820.595 59.4766C815.65 61.1651 811.549 63.9394 808.293 67.7988C805.037 71.6583 802.564 76.7836 800.875 83.1758C799.307 89.568 798.523 97.4076 798.523 106.694C798.523 115.257 799.307 122.494 800.875 128.403C802.443 134.192 804.795 138.896 807.931 142.515C811.187 146.012 815.167 148.605 819.871 150.294C824.695 151.862 830.303 152.645 836.695 152.646C842.364 152.646 848.274 152.284 854.425 151.561C858.955 150.939 863.191 150.153 867.133 149.204C869.379 148.663 871.677 150.022 872.184 152.276L874.05 160.583C874.511 162.636 873.312 164.704 871.281 165.255C869.583 165.716 867.823 166.156 866.003 166.576C862.988 167.3 859.732 167.903 856.234 168.386C852.857 168.868 849.299 169.229 845.561 169.471C841.822 169.712 837.841 169.833 833.62 169.833C824.575 169.833 816.554 168.747 809.559 166.576C802.684 164.285 796.895 160.666 792.191 155.722C787.488 150.777 783.93 144.324 781.518 136.364C779.105 128.284 777.899 118.453 777.899 106.875C777.899 90.8344 780.07 77.8692 784.412 67.9795C788.875 58.0897 795.388 50.9137 803.951 46.4512C812.635 41.8681 823.369 39.5762 836.153 39.5762ZM428.37 41.3848C430.59 41.3849 432.39 43.1851 432.39 45.4053V130.937C432.39 139.5 431.003 146.676 428.229 152.465C425.456 158.254 421.174 162.596 415.385 165.49C409.596 168.385 402.117 169.832 392.951 169.832C389.213 169.832 385.233 169.591 381.012 169.108C376.911 168.747 372.81 168.144 368.709 167.3C365.888 166.719 363.125 166.053 360.418 165.301C358.362 164.73 357.179 162.605 357.702 160.536L359.758 152.406C360.304 150.245 362.506 148.943 364.67 149.479C366.581 149.953 368.47 150.406 370.338 150.837C373.473 151.44 376.488 151.922 379.383 152.284C382.398 152.525 385.112 152.646 387.524 152.646C392.952 152.645 397.475 151.862 401.093 150.294C404.831 148.605 407.605 145.831 409.414 141.972C411.223 138.112 412.128 133.047 412.128 126.775V63.1348C412.128 60.9144 410.328 59.1143 408.107 59.1143H368.931C366.71 59.1143 364.91 57.3141 364.91 55.0938V45.4053C364.91 43.185 366.71 41.3848 368.931 41.3848H428.37ZM1189.32 41.0234C1190.69 41.0235 1191.97 41.7226 1192.71 42.8779L1245.08 124.78C1247.24 128.165 1252.49 126.632 1252.49 122.614V45.4053C1252.49 43.185 1254.29 41.3848 1256.51 41.3848H1266.56C1268.78 41.385 1270.58 43.1852 1270.58 45.4053V164.365C1270.58 166.585 1268.78 168.385 1266.56 168.385H1253.59C1252.23 168.385 1250.95 167.69 1250.21 166.541L1198.02 85.4473C1195.85 82.0744 1190.62 83.6118 1190.62 87.623V164.003C1190.62 166.223 1188.82 168.023 1186.6 168.023H1176.36C1174.14 168.023 1172.34 166.223 1172.34 164.003V45.0439C1172.34 42.8236 1174.14 41.0234 1176.36 41.0234H1189.32ZM580.055 40.9629C581.568 40.8892 582.993 41.6721 583.743 42.9883L611.18 91.165C612.732 93.8916 616.672 93.8682 618.191 91.123L644.809 43.0342C645.551 41.6927 646.992 40.8905 648.523 40.9658L661.586 41.6074C664.573 41.7543 666.359 44.9954 664.889 47.5996L625.193 117.896C624.853 118.499 624.674 119.179 624.674 119.872V164.003C624.674 166.223 622.874 168.023 620.653 168.023H608.612C606.392 168.023 604.593 166.223 604.593 164.003V119.891C604.593 119.186 604.408 118.493 604.056 117.883L563.557 47.6309C562.055 45.0256 563.84 41.7539 566.844 41.6074L580.055 40.9629ZM690.474 40.9629C691.987 40.8891 693.413 41.6719 694.163 42.9883L721.6 91.165C723.152 93.8916 727.091 93.868 728.61 91.123L755.228 43.0342C755.97 41.6927 757.411 40.8905 758.942 40.9658L772.006 41.6074C774.993 41.7546 776.779 44.9955 775.309 47.5996L735.612 117.896C735.272 118.499 735.093 119.18 735.093 119.872V164.003C735.093 166.223 733.293 168.023 731.073 168.023H719.032C716.812 168.023 715.012 166.223 715.012 164.003V119.891C715.012 119.186 714.827 118.493 714.475 117.883L673.976 47.6309C672.474 45.0257 674.259 41.7543 677.263 41.6074L690.474 40.9629ZM907.851 41.3848C910.071 41.3848 911.871 43.185 911.871 45.4053V98.6943C911.871 100.914 913.671 102.714 915.892 102.714H968.095C970.315 102.714 972.114 100.914 972.114 98.6943V45.4053C972.114 43.185 973.914 41.3848 976.135 41.3848H988.176C990.396 41.3849 992.195 43.1851 992.195 45.4053V164.003C992.195 166.223 990.396 168.023 988.176 168.023H976.135C973.914 168.023 972.114 166.223 972.114 164.003V124.825C972.114 122.605 970.315 120.806 968.095 120.806H915.892C913.671 120.806 911.871 122.605 911.871 124.825V164.003C911.871 166.223 910.071 168.023 907.851 168.023H895.811C893.59 168.023 891.79 166.223 891.79 164.003V45.4053C891.79 43.185 893.59 41.3848 895.811 41.3848H907.851ZM1069 40.2998C1070.73 40.2998 1072.26 41.405 1072.81 43.0449L1112.82 162.729C1113.69 165.332 1111.75 168.023 1109 168.023H1095.27C1093.52 168.023 1091.97 166.895 1091.44 165.232L1083.64 140.964C1083.11 139.301 1081.56 138.173 1079.81 138.173H1039.54C1037.8 138.173 1036.25 139.301 1035.72 140.964L1027.92 165.232C1027.39 166.895 1025.84 168.023 1024.09 168.023H1011.61C1008.87 168.023 1006.93 165.34 1007.79 162.738L1047.46 43.0547C1048.01 41.41 1049.54 40.3 1051.28 40.2998H1069ZM1144.41 41.3848C1146.63 41.3848 1148.43 43.185 1148.43 45.4053V164.003C1148.43 166.223 1146.63 168.023 1144.41 168.023H1132.37C1130.15 168.023 1128.35 166.223 1128.35 164.003V45.4053C1128.35 43.185 1130.15 41.3848 1132.37 41.3848H1144.41ZM505.008 55.6777C501.269 55.6777 497.651 56.1601 494.153 57.125C490.776 57.9692 487.581 59.4766 484.565 61.6475C481.671 63.6977 479.138 66.6524 476.967 70.5117C474.796 74.2505 473.107 78.9546 471.901 84.623C470.816 90.171 470.273 96.9256 470.273 104.886C470.273 112.604 470.816 119.237 471.901 124.785C473.107 130.333 474.796 134.977 476.967 138.716C479.258 142.455 481.852 145.409 484.746 147.58C487.641 149.751 490.776 151.319 494.153 152.284C497.651 153.128 501.269 153.551 505.008 153.551C508.988 153.551 512.727 153.128 516.225 152.284C519.843 151.319 523.099 149.751 525.993 147.58C528.888 145.409 531.421 142.515 533.592 138.896C535.763 135.158 537.391 130.454 538.477 124.785C539.683 119.117 540.285 112.423 540.285 104.704C540.285 96.8648 539.683 90.1109 538.477 84.4424C537.27 78.7738 535.582 74.0699 533.411 70.3311C531.361 66.5922 528.828 63.6978 525.812 61.6475C522.918 59.4767 519.662 57.9693 516.044 57.125C512.546 56.1601 508.867 55.6777 505.008 55.6777ZM1063.62 70.875C1062.46 67.0725 1057.08 67.0725 1055.92 70.875L1042.17 116.159C1041.39 118.741 1043.32 121.348 1046.02 121.348H1073.52C1076.22 121.348 1078.16 118.741 1077.37 116.159L1063.62 70.875Z" fill="black"/>
<path d="M87.4326 175.714C125.328 216.315 161.995 218.895 197.435 183.455L317.147 63.743L283.651 30.2472L171.243 142.655C164.075 149.824 157.852 154.963 152.576 158.074C147.3 161.185 142.091 162.334 136.949 161.521C132.078 160.708 126.936 157.594 121.523 152.181C119.222 149.88 117.53 148.053 116.448 146.7L87.4326 175.714Z" fill="url(#paint0_linear_394_1299)"/>
<path d="M33.4957 178.9L145.904 66.492C153.072 59.3231 159.295 54.1836 164.571 51.073C169.847 47.9624 175.056 46.8128 180.198 47.6259C185.069 48.4389 190.211 51.5527 195.624 56.9661C197.925 59.2668 199.617 61.0942 200.7 62.4475L229.714 33.4327C191.819 -7.16782 155.152 -9.74769 119.712 25.6925L0 145.404L33.4957 178.9Z" fill="url(#paint1_linear_394_1299)"/>
<defs>
<linearGradient id="paint0_linear_394_1299" x1="58.6328" y1="163.147" x2="238.633" y2="-10.3528" gradientUnits="userSpaceOnUse">
<stop stop-color="#F83800"/>
<stop offset="1" stop-color="#FF873E"/>
</linearGradient>
<linearGradient id="paint1_linear_394_1299" x1="58.6328" y1="163.147" x2="238.633" y2="-10.3528" gradientUnits="userSpaceOnUse">
<stop stop-color="#F83800"/>
<stop offset="1" stop-color="#FF873E"/>
</linearGradient>
</defs>
</svg>
