<svg width="1271" height="208" viewBox="0 0 1271 208" fill="none" xmlns="http://www.w3.org/2000/svg">
<path d="M505.189 38.6602C511.822 38.6602 517.973 39.3238 523.641 40.6504C529.43 41.9771 534.557 44.1479 539.019 47.1631C543.602 50.0577 547.521 54.038 550.778 59.1035C554.034 64.0484 556.567 70.1996 558.376 77.5566C560.185 84.793 561.09 93.4165 561.09 103.427C561.09 113.558 560.186 122.362 558.376 129.84C556.688 137.197 554.155 143.408 550.778 148.474C547.521 153.418 543.602 157.399 539.019 160.414C534.557 163.429 529.43 165.6 523.641 166.927C517.973 168.253 511.822 168.917 505.189 168.917C498.676 168.917 492.585 168.253 486.916 166.927C481.369 165.6 476.242 163.429 471.539 160.414C466.956 157.278 463.036 153.238 459.78 148.293C456.523 143.227 453.99 137.076 452.181 129.84C450.493 122.483 449.649 113.799 449.649 103.788C449.649 93.7778 450.493 85.1544 452.181 77.918C453.87 70.5609 456.343 64.4098 459.599 59.4648C462.855 54.3994 466.775 50.3589 471.358 47.3438C475.941 44.208 481.006 41.9771 486.554 40.6504C492.223 39.3237 498.435 38.6602 505.189 38.6602ZM836.153 38.6602C839.891 38.6602 843.329 38.7813 846.464 39.0225C849.6 39.1431 852.616 39.4443 855.51 39.9268C858.405 40.2886 861.178 40.771 863.832 41.374C865.387 41.7121 866.942 42.088 868.498 42.502C870.559 43.0506 871.758 45.166 871.251 47.2383L869.149 55.8389C868.614 58.0276 866.386 59.3397 864.188 58.8447C862.008 58.3539 859.9 57.9582 857.862 57.6562C854.605 57.0532 851.349 56.6309 848.092 56.3896C844.836 56.1485 841.459 56.0273 837.961 56.0273C831.328 56.0274 825.539 56.8721 820.594 58.5605C815.649 60.2491 811.549 63.0234 808.292 66.8828C805.036 70.7422 802.563 75.8676 800.874 82.2598C799.307 88.652 798.523 96.4915 798.523 105.778C798.523 114.341 799.307 121.578 800.874 127.487C802.442 133.276 804.794 137.98 807.93 141.599C811.187 145.096 815.167 147.689 819.871 149.378C824.695 150.946 830.303 151.729 836.695 151.729C842.363 151.729 848.273 151.368 854.424 150.645C858.955 150.023 863.191 149.237 867.132 148.288C869.379 147.747 871.676 149.106 872.183 151.36L874.049 159.667C874.511 161.72 873.312 163.788 871.281 164.339C869.582 164.8 867.823 165.24 866.002 165.66C862.987 166.384 859.731 166.987 856.234 167.47C852.857 167.952 849.299 168.313 845.56 168.555C841.821 168.796 837.841 168.917 833.62 168.917C824.574 168.917 816.554 167.831 809.559 165.66C802.684 163.369 796.895 159.751 792.191 154.806C787.487 149.861 783.929 143.408 781.517 135.448C779.105 127.368 777.899 117.537 777.899 105.959C777.899 89.9185 780.07 76.9532 784.412 67.0635C788.874 57.1736 795.388 49.9976 803.951 45.5352C812.634 40.9521 823.368 38.6602 836.153 38.6602ZM428.37 40.4688C430.59 40.4688 432.39 42.269 432.39 44.4893V130.021C432.39 138.584 431.003 145.76 428.229 151.549C425.455 157.338 421.173 161.68 415.384 164.574C409.595 167.469 402.117 168.916 392.951 168.916C389.212 168.916 385.232 168.675 381.011 168.192C376.911 167.831 372.81 167.228 368.709 166.384C365.889 165.803 363.124 165.137 360.417 164.385C358.361 163.813 357.179 161.689 357.702 159.62L359.757 151.49C360.304 149.329 362.505 148.027 364.669 148.563C366.58 149.037 368.47 149.49 370.337 149.921C373.473 150.524 376.488 151.006 379.382 151.368C382.397 151.609 385.112 151.729 387.524 151.729C392.951 151.729 397.474 150.946 401.092 149.378C404.831 147.689 407.604 144.915 409.414 141.056C411.223 137.196 412.127 132.131 412.127 125.859V62.2188C412.127 59.9986 410.328 58.1985 408.108 58.1982H368.93C366.71 58.1982 364.91 56.3981 364.91 54.1777V44.4893C364.91 42.269 366.71 40.4688 368.93 40.4688H428.37ZM1189.32 40.1074C1190.69 40.1074 1191.97 40.8066 1192.71 41.9619L1245.08 123.864C1247.24 127.249 1252.49 125.716 1252.49 121.698V44.4893C1252.49 42.269 1254.29 40.4688 1256.51 40.4688H1266.56C1268.78 40.4689 1270.58 42.2691 1270.58 44.4893V163.449C1270.58 165.669 1268.78 167.469 1266.56 167.469H1253.6C1252.23 167.469 1250.95 166.774 1250.21 165.625L1198.02 84.5312C1195.85 81.1584 1190.62 82.6958 1190.62 86.707V163.087C1190.62 165.307 1188.82 167.107 1186.6 167.107H1176.36C1174.14 167.107 1172.34 165.307 1172.34 163.087V44.1279C1172.34 41.9076 1174.14 40.1074 1176.36 40.1074H1189.32ZM580.054 40.0469C581.567 39.9732 582.994 40.7558 583.744 42.0723L611.18 90.249C612.733 92.9756 616.671 92.9522 618.191 90.207L644.808 42.1182C645.551 40.7767 646.991 39.9745 648.523 40.0498L661.585 40.6914C664.572 40.8383 666.359 44.0794 664.889 46.6836L625.193 116.979C624.852 117.583 624.673 118.263 624.673 118.956V163.087C624.673 165.307 622.873 167.107 620.653 167.107H608.613C606.392 167.107 604.592 165.307 604.592 163.087V118.975C604.592 118.27 604.407 117.577 604.055 116.967L563.556 46.7148C562.054 44.1096 563.84 40.838 566.843 40.6914L580.054 40.0469ZM690.473 40.0469C691.986 39.9731 693.413 40.7559 694.163 42.0723L721.599 90.249C723.152 92.9755 727.09 92.952 728.61 90.207L755.227 42.1182C755.97 40.7767 757.41 39.9745 758.942 40.0498L772.005 40.6914C774.992 40.8385 776.778 44.0795 775.308 46.6836L735.612 116.979C735.271 117.583 735.092 118.264 735.092 118.956V163.087C735.092 165.307 733.293 167.107 731.073 167.107H719.032C716.811 167.107 715.011 165.307 715.011 163.087V118.975C715.011 118.27 714.826 117.577 714.474 116.967L673.976 46.7148C672.474 44.1096 674.26 40.8379 677.263 40.6914L690.473 40.0469ZM907.85 40.4688C910.07 40.4688 911.871 42.269 911.871 44.4893V97.7783C911.871 99.9984 913.671 101.798 915.891 101.798H968.094C970.314 101.798 972.113 99.9983 972.114 97.7783V44.4893C972.114 42.269 973.914 40.4688 976.134 40.4688H988.175C990.395 40.4688 992.196 42.269 992.196 44.4893V163.087C992.196 165.307 990.396 167.107 988.175 167.107H976.134C973.914 167.107 972.114 165.307 972.114 163.087V123.909C972.114 121.689 970.314 119.89 968.094 119.89H915.891C913.671 119.89 911.871 121.689 911.871 123.909V163.087C911.871 165.307 910.07 167.107 907.85 167.107H895.81C893.59 167.107 891.789 165.307 891.789 163.087V44.4893C891.79 42.269 893.59 40.4688 895.81 40.4688H907.85ZM1069 39.3838C1070.72 39.3838 1072.26 40.4891 1072.81 42.1289L1112.82 161.812C1113.69 164.416 1111.75 167.107 1109 167.107H1095.27C1093.52 167.107 1091.97 165.979 1091.44 164.316L1083.64 140.048C1083.11 138.385 1081.56 137.257 1079.81 137.257H1039.54C1037.8 137.257 1036.25 138.385 1035.72 140.048L1027.92 164.316C1027.39 165.979 1025.84 167.107 1024.09 167.107H1011.61C1008.87 167.107 1006.93 164.424 1007.79 161.822L1047.46 42.1387C1048 40.4939 1049.54 39.3838 1051.28 39.3838H1069ZM1144.41 40.4688C1146.63 40.4688 1148.43 42.269 1148.43 44.4893V163.087C1148.43 165.307 1146.63 167.107 1144.41 167.107H1132.37C1130.15 167.107 1128.35 165.307 1128.35 163.087V44.4893C1128.35 42.269 1130.15 40.4688 1132.37 40.4688H1144.41ZM505.007 54.7617C501.269 54.7617 497.65 55.2441 494.153 56.209C490.776 57.0532 487.58 58.5606 484.565 60.7314C481.67 62.7817 479.137 65.7364 476.966 69.5957C474.795 73.3345 473.107 78.0385 471.901 83.707C470.815 89.255 470.273 96.0096 470.273 103.97C470.273 111.688 470.815 118.321 471.901 123.869C473.107 129.417 474.795 134.061 476.966 137.8C479.258 141.539 481.851 144.493 484.746 146.664C487.64 148.835 490.776 150.403 494.153 151.368C497.65 152.212 501.269 152.635 505.007 152.635C508.987 152.635 512.726 152.212 516.224 151.368C519.842 150.403 523.099 148.835 525.994 146.664C528.888 144.493 531.42 141.599 533.591 137.98C535.762 134.242 537.391 129.538 538.476 123.869C539.682 118.201 540.286 111.507 540.286 103.788C540.286 95.9487 539.682 89.1948 538.476 83.5264C537.27 77.8578 535.582 73.1539 533.411 69.415C531.36 65.6762 528.827 62.7818 525.812 60.7314C522.918 58.5607 519.661 57.0532 516.043 56.209C512.546 55.2441 508.867 54.7617 505.007 54.7617ZM1063.62 69.959C1062.46 66.1565 1057.08 66.1565 1055.92 69.959L1042.17 115.243C1041.39 117.825 1043.32 120.432 1046.02 120.432H1073.52C1076.22 120.432 1078.15 117.825 1077.37 115.243L1063.62 69.959Z" fill="white"/>
<path d="M87.4326 174.798C125.328 215.399 161.995 217.979 197.435 182.539L317.147 62.8269L283.651 29.3312L171.243 141.739C164.075 148.908 157.852 154.047 152.576 157.158C147.3 160.269 142.091 161.418 136.949 160.605C132.078 159.792 126.936 156.678 121.523 151.265C119.222 148.964 117.53 147.137 116.448 145.784L87.4326 174.798Z" fill="url(#paint0_linear_376_1049)"/>
<path d="M33.4957 177.984L145.904 65.576C153.072 58.4071 159.295 53.2676 164.571 50.157C169.847 47.0464 175.056 45.8968 180.198 46.7099C185.069 47.5229 190.211 50.6367 195.624 56.05C197.925 58.3508 199.617 60.1782 200.7 61.5315L229.714 32.5166C191.819 -8.08383 155.152 -10.6637 119.712 24.7764L0 144.488L33.4957 177.984Z" fill="url(#paint1_linear_376_1049)"/>
<defs>
<linearGradient id="paint0_linear_376_1049" x1="58.6328" y1="162.231" x2="238.633" y2="-11.2688" gradientUnits="userSpaceOnUse">
<stop stop-color="#F83800"/>
<stop offset="1" stop-color="#FF873E"/>
</linearGradient>
<linearGradient id="paint1_linear_376_1049" x1="58.6328" y1="162.231" x2="238.633" y2="-11.2688" gradientUnits="userSpaceOnUse">
<stop stop-color="#F83800"/>
<stop offset="1" stop-color="#FF873E"/>
</linearGradient>
</defs>
</svg>
