<svg width="1200" height="1200" viewBox="0 0 1200 1200" fill="none" xmlns="http://www.w3.org/2000/svg">
<rect width="1200" height="1200" fill="url(#paint0_linear_376_1042)"/>
<path d="M753.536 447.455C672.44 360.536 593.77 355.197 517.53 431.44L260 688.978L331.696 760.675L573.512 518.852C588.935 503.429 602.315 492.365 613.653 485.661C624.991 478.958 636.176 476.465 647.204 478.182C657.652 479.9 668.67 486.554 680.257 498.141C685.181 503.066 688.802 506.977 691.118 509.875L753.536 447.455Z" fill="white"/>
<path d="M869.306 440.325L627.489 682.149C612.066 697.572 598.685 708.635 587.347 715.338C576.009 722.042 564.826 724.536 553.797 722.819C543.349 721.101 532.332 714.447 520.745 702.86C515.82 697.935 512.199 694.024 509.883 691.126L447.465 753.546C528.561 840.465 607.23 845.802 683.47 769.559L941 512.022L869.306 440.325Z" fill="white"/>
<defs>
<linearGradient id="paint0_linear_376_1042" x1="90.5172" y1="287.391" x2="98.059" y2="1061.46" gradientUnits="userSpaceOnUse">
<stop stop-color="#FF8D47"/>
<stop offset="1" stop-color="#F83800"/>
</linearGradient>
</defs>
</svg>
