<svg width="681" height="445" viewBox="0 0 681 445" fill="none" xmlns="http://www.w3.org/2000/svg">
<path d="M493.536 69.455C412.44 -17.4639 333.77 -22.8025 257.53 53.4403L0 310.978L71.6957 382.675L313.512 140.852C328.935 125.429 342.315 114.365 353.653 107.661C364.991 100.958 376.176 98.4649 387.204 100.182C397.652 101.9 408.67 108.554 420.257 120.141C425.181 125.066 428.802 128.977 431.118 131.875L493.536 69.455Z" fill="white"/>
<path d="M609.306 62.3254L367.489 304.149C352.066 319.572 338.685 330.635 327.347 337.338C316.009 344.042 304.826 346.536 293.797 344.819C283.349 343.101 272.332 336.447 260.745 324.86C255.82 319.935 252.199 316.024 249.883 313.126L187.465 375.546C268.561 462.465 347.23 467.802 423.47 391.559L681 134.022L609.306 62.3254Z" fill="white"/>
</svg>
